<mxfile host="app.diagrams.net" modified="2020-10-21T12:20:30.499Z" agent="5.0 (X11; Linux x86_64) AppleWebKit/537.36 (KHTML, like Gecko) Chrome/85.0.4183.121 Safari/537.36 OPR/71.0.3770.271" etag="jUjTUidIfjBlMimzvyJu" version="13.8.1" type="github" pages="2">
  <diagram id="C5RBs43oDa-KdzZeNtuy" name="Starter">
    <mxGraphModel dx="1382" dy="764" grid="1" gridSize="10" guides="1" tooltips="1" connect="1" arrows="1" fold="1" page="1" pageScale="1" pageWidth="827" pageHeight="1169" math="0" shadow="0">
      <root>
        <mxCell id="WIyWlLk6GJQsqaUBKTNV-0" />
        <mxCell id="WIyWlLk6GJQsqaUBKTNV-1" parent="WIyWlLk6GJQsqaUBKTNV-0" />
        <mxCell id="yPFtn3iHp5kZOwAeZ0vq-3" value="restoreData()" style="rounded=1;whiteSpace=wrap;html=1;" vertex="1" parent="WIyWlLk6GJQsqaUBKTNV-1">
          <mxGeometry x="354" y="90" width="120" height="60" as="geometry" />
        </mxCell>
      </root>
    </mxGraphModel>
  </diagram>
  <diagram id="74ktyoUmOsF4nZrk9YU3" name="restoreData()">
    <mxGraphModel dx="1382" dy="764" grid="1" gridSize="10" guides="1" tooltips="1" connect="1" arrows="1" fold="1" page="1" pageScale="1" pageWidth="850" pageHeight="1100" math="0" shadow="0">
      <root>
        <mxCell id="QEvrC2Vw945Q8kKHJT9y-0" />
        <mxCell id="QEvrC2Vw945Q8kKHJT9y-1" parent="QEvrC2Vw945Q8kKHJT9y-0" />
        <mxCell id="QEvrC2Vw945Q8kKHJT9y-11" value="" style="edgeStyle=orthogonalEdgeStyle;rounded=0;orthogonalLoop=1;jettySize=auto;html=1;" edge="1" parent="QEvrC2Vw945Q8kKHJT9y-1" source="QEvrC2Vw945Q8kKHJT9y-3" target="QEvrC2Vw945Q8kKHJT9y-4">
          <mxGeometry relative="1" as="geometry" />
        </mxCell>
        <mxCell id="QEvrC2Vw945Q8kKHJT9y-3" value="die file dictApp.txt in die Variable dictAppTxt schreiben" style="rounded=0;whiteSpace=wrap;html=1;" vertex="1" parent="QEvrC2Vw945Q8kKHJT9y-1">
          <mxGeometry x="365" y="80" width="120" height="60" as="geometry" />
        </mxCell>
        <mxCell id="QEvrC2Vw945Q8kKHJT9y-12" value="" style="edgeStyle=orthogonalEdgeStyle;rounded=0;orthogonalLoop=1;jettySize=auto;html=1;" edge="1" parent="QEvrC2Vw945Q8kKHJT9y-1" source="QEvrC2Vw945Q8kKHJT9y-4" target="QEvrC2Vw945Q8kKHJT9y-5">
          <mxGeometry relative="1" as="geometry" />
        </mxCell>
        <mxCell id="QEvrC2Vw945Q8kKHJT9y-4" value="erstellen der Variable dictApp (auf globaler ebene)" style="rounded=0;whiteSpace=wrap;html=1;" vertex="1" parent="QEvrC2Vw945Q8kKHJT9y-1">
          <mxGeometry x="365" y="150" width="120" height="60" as="geometry" />
        </mxCell>
        <mxCell id="QEvrC2Vw945Q8kKHJT9y-10" value="" style="edgeStyle=orthogonalEdgeStyle;rounded=0;orthogonalLoop=1;jettySize=auto;html=1;" edge="1" parent="QEvrC2Vw945Q8kKHJT9y-1" source="QEvrC2Vw945Q8kKHJT9y-5" target="QEvrC2Vw945Q8kKHJT9y-6">
          <mxGeometry relative="1" as="geometry" />
        </mxCell>
        <mxCell id="QEvrC2Vw945Q8kKHJT9y-5" value="die Variable dictApp = eval(dictAppTxt.read())" style="rounded=0;whiteSpace=wrap;html=1;" vertex="1" parent="QEvrC2Vw945Q8kKHJT9y-1">
          <mxGeometry x="365" y="230" width="120" height="60" as="geometry" />
        </mxCell>
        <mxCell id="QEvrC2Vw945Q8kKHJT9y-13" value="" style="edgeStyle=orthogonalEdgeStyle;rounded=0;orthogonalLoop=1;jettySize=auto;html=1;" edge="1" parent="QEvrC2Vw945Q8kKHJT9y-1" target="QEvrC2Vw945Q8kKHJT9y-7">
          <mxGeometry relative="1" as="geometry">
            <mxPoint x="425" y="410" as="sourcePoint" />
          </mxGeometry>
        </mxCell>
        <mxCell id="QEvrC2Vw945Q8kKHJT9y-6" value="die file texts.txt in die Variable textsTxt schreiben" style="rounded=0;whiteSpace=wrap;html=1;" vertex="1" parent="QEvrC2Vw945Q8kKHJT9y-1">
          <mxGeometry x="365" y="350" width="120" height="60" as="geometry" />
        </mxCell>
        <mxCell id="QEvrC2Vw945Q8kKHJT9y-14" value="" style="edgeStyle=orthogonalEdgeStyle;rounded=0;orthogonalLoop=1;jettySize=auto;html=1;" edge="1" parent="QEvrC2Vw945Q8kKHJT9y-1" source="QEvrC2Vw945Q8kKHJT9y-7" target="QEvrC2Vw945Q8kKHJT9y-8">
          <mxGeometry relative="1" as="geometry" />
        </mxCell>
        <mxCell id="QEvrC2Vw945Q8kKHJT9y-7" value="erstellen der Variable texts (auf globaler ebene)" style="rounded=0;whiteSpace=wrap;html=1;" vertex="1" parent="QEvrC2Vw945Q8kKHJT9y-1">
          <mxGeometry x="365" y="430" width="120" height="60" as="geometry" />
        </mxCell>
        <mxCell id="QEvrC2Vw945Q8kKHJT9y-8" value="die Variable texts = eval(textsTxt.read())" style="rounded=0;whiteSpace=wrap;html=1;" vertex="1" parent="QEvrC2Vw945Q8kKHJT9y-1">
          <mxGeometry x="365" y="510" width="120" height="60" as="geometry" />
        </mxCell>
      </root>
    </mxGraphModel>
  </diagram>
</mxfile>
